<?xml version="1.0" encoding="UTF-8" standalone="no"?>
<!-- Created with Inkscape (http://www.inkscape.org/) -->

<svg
   xmlns:dc="http://purl.org/dc/elements/1.1/"
   xmlns:cc="http://creativecommons.org/ns#"
   xmlns:rdf="http://www.w3.org/1999/02/22-rdf-syntax-ns#"
   xmlns:svg="http://www.w3.org/2000/svg"
   xmlns="http://www.w3.org/2000/svg"
   xmlns:sodipodi="http://sodipodi.sourceforge.net/DTD/sodipodi-0.dtd"
   xmlns:inkscape="http://www.inkscape.org/namespaces/inkscape"
   width="92"
   height="25"
   id="svg2"
   version="1.1"
   inkscape:version="0.48.5 r10040"
   inkscape:export-filename="/root/Desktop/xx.png"
   inkscape:export-xdpi="90"
   inkscape:export-ydpi="90"
   sodipodi:docname="logo.svg">
  <defs
     id="defs4" />
  <sodipodi:namedview
     id="base"
     pagecolor="#ffffff"
     bordercolor="#666666"
     borderopacity="1.0"
     inkscape:pageopacity="0.0"
     inkscape:pageshadow="2"
     inkscape:zoom="7.9195959"
     inkscape:cx="38.772521"
     inkscape:cy="11.808653"
     inkscape:document-units="px"
     inkscape:current-layer="layer1"
     showgrid="false"
     inkscape:window-width="1366"
     inkscape:window-height="713"
     inkscape:window-x="0"
     inkscape:window-y="28"
     inkscape:window-maximized="1"
     showguides="true"
     inkscape:guide-bbox="true" />
  <metadata
     id="metadata7">
    <rdf:RDF>
      <cc:Work
         rdf:about="">
        <dc:format>image/svg+xml</dc:format>
        <dc:type
           rdf:resource="http://purl.org/dc/dcmitype/StillImage" />
        <dc:title />
      </cc:Work>
    </rdf:RDF>
  </metadata>
  <g
     inkscape:label="Layer 1"
     inkscape:groupmode="layer"
     id="layer1"
     transform="translate(0,-1027.3622)">
    <g
       id="g3834"
       transform="translate(-4.0406101,0)">
      <path
         sodipodi:nodetypes="cccccccccccccccscccscscscscccscccccccccssc"
         inkscape:connector-curvature="0"
         id="path3451"
         d="m 45.935775,1031.8448 c 0.169022,0.1865 0.744806,0.8715 0.79469,1.777 -0.635144,-0.1001 -1.21232,-0.1192 -1.790446,-0.1398 l -0.16915,-0.1812 c -0.590998,-0.5117 -1.302776,-0.783 -2.243642,-0.5977 0.708513,0.1448 0.962565,0.5765 1.251077,0.995 -0.535931,0.1333 -1.073646,0.2564 -1.541506,0.5818 -0.981117,-0.4686 -1.718533,-0.022 -2.285132,0.3815 0.571567,-0.1193 1.092129,-0.07 1.570231,0.1716 -0.734307,0.3014 -0.976698,0.8148 -1.145758,1.3575 -1.121582,0.1258 -1.509739,0.6065 -1.838318,1.1444 0.397078,-0.2467 0.822132,-0.4135 1.346823,-0.302 -0.419968,0.551 -0.539629,1.1852 -0.469154,1.8757 -0.652062,0.4472 -0.95999,0.9675 -0.957457,1.5545 0.216922,-0.3758 0.487618,-0.694 0.868095,-0.7789 0.0073,1.3286 0.05442,2.6828 1.037245,3.9516 1.024269,1.3222 2.077134,2.8584 2.597901,4.2885 l 0.421281,0.4196 6.967099,-0.2702 c -0.85266,-2.2212 -2.113622,-3.8317 -4.934097,-5.3122 -0.07786,-0.041 -1.160707,-0.8631 -1.117034,-0.9886 0,0 -1.287459,-1.5065 -0.791498,-3.2109 0.49596,-1.7043 3.146843,-1.4305 3.146843,-1.4305 0.890583,0.078 1.51642,0.4195 2.265983,0.7184 1.028348,0.4102 2.048754,0.9868 3.073438,1.7008 -0.05138,0.7977 -0.08372,1.798 0.520219,2.4034 0.06507,0.065 2.942585,1.5037 2.942585,1.5037 l 0.405324,0.232 c 0.86706,0.4015 3.603231,2.9438 3.603231,2.9438 0.01008,-0.037 0.557531,-0.5968 1.161715,-1.0618 0.586962,-0.4518 1.228737,-0.8075 1.228737,-0.8075 -1.814612,0.075 -4.524281,-2.2739 -4.512816,-2.4224 -0.0466,-0.07 0.188152,-0.225 0.341494,-0.1844 0.04034,0.011 0.05745,-0.3719 0.05745,-0.3719 -0.352993,-0.089 -2.522615,-3.5988 -2.505347,-3.6178 l -1.774488,0.1495 c -1.583264,-1.7302 -3.305627,-3.7063 -5.518146,-4.5206 -0.518829,-0.8423 -1.074517,-1.6367 -2.007469,-1.9519 z m 9.62883,8.4721 c 0,0 0.910941,1.2845 0.848946,1.2907 -0.062,0.01 -0.85698,-0.4887 -0.912776,-0.7789 -0.06769,-0.3521 0.06383,-0.5118 0.06383,-0.5118 z"
         style="fill:#00ff7f;fill-opacity:1;stroke:none" />
      <path
         sodipodi:nodetypes="csscc"
         inkscape:connector-curvature="0"
         id="path3453"
         d="m 51.941562,1039.635 c 0,0 -2.396778,-2.8182 -4.046346,-3.4554 -1.277814,-0.4935 -2.844339,-0.7847 -4.104073,-0.247 -1.0487,0.4477 -1.935047,1.2439 -2.207025,2.606 -0.680308,3.6285 3.946672,6.662 3.582593,9.5426"
         style="fill:none;stroke:#052524;stroke-width:0.2038573;stroke-linecap:round;stroke-linejoin:miter;stroke-opacity:1" />
      <path
         sodipodi:nodetypes="csccc"
         inkscape:connector-curvature="0"
         id="path3457"
         d="m 38.506565,1027.7992 c 0.0058,-0.029 4.820187,1.4849 9.459214,4.8172 1.806485,1.2976 4.126831,3.0916 5.831177,4.929 l 0.999486,-0.07 c 0,0 -7.136685,-7.4057 -16.289877,-9.6763 z"
         style="fill:#00ff7f;fill-opacity:1;stroke:none" />
      <path
         sodipodi:nodetypes="ccc"
         inkscape:connector-curvature="0"
         id="path3449"
         d="m 28.77594,1051.9512 c 0,0 15.622754,-7.2621 34.76683,0.1976 -18.251349,-9.584 -34.76683,-0.1976 -34.76683,-0.1976 z"
         style="fill:#00ff7f;fill-opacity:1;stroke:none" />
    </g>
    <text
       xml:space="preserve"
       style="font-size:9.19883537px;font-style:normal;font-variant:normal;font-weight:bold;font-stretch:normal;line-height:125%;letter-spacing:0px;word-spacing:0px;fill:#00ff7f;fill-opacity:1;stroke:none;font-family:San Francisco Display;-inkscape-font-specification:San Francisco Display Bold"
       x="8.8536882"
       y="1043.1445"
       id="text3062"
       sodipodi:linespacing="125%"><tspan
         sodipodi:role="line"
         id="tspan3064"
         x="8.8536882"
         y="1043.1445">KALI</tspan></text>
    <text
       sodipodi:linespacing="125%"
       id="text3840"
       y="1043.1445"
       x="59.487583"
       style="font-size:9.19883537px;font-style:normal;font-variant:normal;font-weight:bold;font-stretch:normal;line-height:125%;letter-spacing:0px;word-spacing:0px;fill:#00ff7f;fill-opacity:1;stroke:none;font-family:San Francisco Display;-inkscape-font-specification:San Francisco Display Bold"
       xml:space="preserve"><tspan
         y="1043.1445"
         x="59.487583"
         id="tspan3842"
         sodipodi:role="line">SANA</tspan></text>
  </g>
</svg>
