<?xml version="1.0" encoding="UTF-8" standalone="no"?>
<!-- Created with Inkscape (http://www.inkscape.org/) -->

<svg
   xmlns:dc="http://purl.org/dc/elements/1.1/"
   xmlns:cc="http://creativecommons.org/ns#"
   xmlns:rdf="http://www.w3.org/1999/02/22-rdf-syntax-ns#"
   xmlns:svg="http://www.w3.org/2000/svg"
   xmlns="http://www.w3.org/2000/svg"
   xmlns:xlink="http://www.w3.org/1999/xlink"
   xmlns:sodipodi="http://sodipodi.sourceforge.net/DTD/sodipodi-0.dtd"
   xmlns:inkscape="http://www.inkscape.org/namespaces/inkscape"
   version="1.1"
   width="64"
   height="22"
   id="svg3273"
   inkscape:version="0.48.3.1 r9886"
   sodipodi:docname="toggle-off-us.svg">
  <sodipodi:namedview
     pagecolor="#ffffff"
     bordercolor="#666666"
     borderopacity="1"
     objecttolerance="10"
     gridtolerance="10"
     guidetolerance="10"
     inkscape:pageopacity="0"
     inkscape:pageshadow="2"
     inkscape:window-width="1600"
     inkscape:window-height="843"
     id="namedview63"
     showgrid="true"
     inkscape:zoom="11.026446"
     inkscape:cx="35.490126"
     inkscape:cy="12.898889"
     inkscape:window-x="0"
     inkscape:window-y="28"
     inkscape:window-maximized="1"
     inkscape:current-layer="svg3273"
     showguides="true"
     inkscape:guide-bbox="true">
    <inkscape:grid
       type="xygrid"
       id="grid3878"
       empspacing="5"
       visible="true"
       enabled="true"
       snapvisiblegridlinesonly="true" />
    <sodipodi:guide
       orientation="1,0"
       position="32,14"
       id="guide3937" />
  </sodipodi:namedview>
  <defs
     id="defs3275">
    <linearGradient
       id="linearGradient3849">
      <stop
         style="stop-color:#afafaf;stop-opacity:1;"
         offset="0"
         id="stop3851" />
      <stop
         style="stop-color:#bfbfbf;stop-opacity:1;"
         offset="1"
         id="stop3853" />
    </linearGradient>
    <linearGradient
       id="linearGradient4063">
      <stop
         id="stop4065"
         style="stop-color:#bfbfbf;stop-opacity:1;"
         offset="0" />
      <stop
         id="stop4067"
         style="stop-color:#e6e6e6;stop-opacity:1;"
         offset="1" />
    </linearGradient>
    <linearGradient
       id="linearGradient3990">
      <stop
         id="stop3992"
         style="stop-color:#ffffff;stop-opacity:1"
         offset="0" />
      <stop
         id="stop3994"
         style="stop-color:#ffffff;stop-opacity:0.29411766;"
         offset="1" />
    </linearGradient>
    <linearGradient
       id="linearGradient3984">
      <stop
         id="stop3986"
         style="stop-color:#404040;stop-opacity:1;"
         offset="0" />
      <stop
         id="stop3988"
         style="stop-color:#595959;stop-opacity:1;"
         offset="1" />
    </linearGradient>
    <linearGradient
       id="linearGradient4095">
      <stop
         id="stop4097"
         style="stop-color:#131313;stop-opacity:1"
         offset="0" />
      <stop
         id="stop4099"
         style="stop-color:#131313;stop-opacity:0"
         offset="1" />
    </linearGradient>
    <linearGradient
       id="linearGradient4054">
      <stop
         id="stop4056"
         style="stop-color:#cdcdcd;stop-opacity:1"
         offset="0" />
      <stop
         id="stop4058"
         style="stop-color:#f9f9f9;stop-opacity:1"
         offset="1" />
    </linearGradient>
    <linearGradient
       id="linearGradient4095-6">
      <stop
         id="stop4097-9"
         style="stop-color:#131313;stop-opacity:1"
         offset="0" />
      <stop
         id="stop4099-3"
         style="stop-color:#131313;stop-opacity:0"
         offset="1" />
    </linearGradient>
    <linearGradient
       x1="-47.059258"
       y1="20.14957"
       x2="-46.978706"
       y2="1.0181593"
       id="linearGradient4524"
       xlink:href="#linearGradient4054"
       gradientUnits="userSpaceOnUse"
       gradientTransform="matrix(0.9757771,0,0,0.98628529,-2.2764068,-27.782147)" />
    <linearGradient
       x1="-17.784681"
       y1="9.8260183"
       x2="-11.504409"
       y2="9.6024895"
       id="linearGradient4528"
       xlink:href="#linearGradient4095-6"
       gradientUnits="userSpaceOnUse"
       gradientTransform="matrix(0.88797735,0,0,0.87902198,-20.729372,-25.547332)" />
    <linearGradient
       x1="17.371481"
       y1="1.4948978"
       x2="17.306519"
       y2="4.8073978"
       id="linearGradient4561"
       xlink:href="#linearGradient3990"
       gradientUnits="userSpaceOnUse"
       gradientTransform="translate(-63.999996,0)" />
    <linearGradient
       x1="-47.059258"
       y1="20.14957"
       x2="-46.978706"
       y2="1.0181593"
       id="linearGradient4568"
       xlink:href="#linearGradient3984"
       gradientUnits="userSpaceOnUse"
       gradientTransform="matrix(0.9757771,0,0,0.98628529,-0.651405,0.09987579)" />
    <linearGradient
       x1="-17.784681"
       y1="9.8260183"
       x2="-11.504409"
       y2="9.6024895"
       id="linearGradient4572"
       xlink:href="#linearGradient4095"
       gradientUnits="userSpaceOnUse"
       gradientTransform="matrix(0.88797735,0,0,0.87902198,-19.10437,2.3346908)" />
    <linearGradient
       x1="40.624996"
       y1="20.6875"
       x2="40.8125"
       y2="10.5"
       id="linearGradient4576"
       xlink:href="#linearGradient4063"
       gradientUnits="userSpaceOnUse"
       gradientTransform="translate(-63.999996,0)" />
    <linearGradient
       inkscape:collect="always"
       xlink:href="#linearGradient3990"
       id="linearGradient3072"
       gradientUnits="userSpaceOnUse"
       gradientTransform="translate(-63.999996,0)"
       x1="17.371481"
       y1="1.4948978"
       x2="17.306519"
       y2="4.8073978" />
    <linearGradient
       inkscape:collect="always"
       xlink:href="#linearGradient3984"
       id="linearGradient3080"
       gradientUnits="userSpaceOnUse"
       gradientTransform="matrix(0.9757771,0,0,0.98628529,-0.651405,0.09987579)"
       x1="-47.059258"
       y1="20.14957"
       x2="-46.978706"
       y2="1.0181593" />
    <linearGradient
       inkscape:collect="always"
       xlink:href="#linearGradient4095"
       id="linearGradient3084"
       gradientUnits="userSpaceOnUse"
       gradientTransform="matrix(0.88797735,0,0,0.87902198,-19.10437,2.3346908)"
       x1="-17.784681"
       y1="9.8260183"
       x2="-11.504409"
       y2="9.6024895" />
    <linearGradient
       inkscape:collect="always"
       xlink:href="#linearGradient3849"
       id="linearGradient3087"
       gradientUnits="userSpaceOnUse"
       x1="-22.778793"
       y1="20.150261"
       x2="-22.768219"
       y2="2.0660934" />
    <linearGradient
       inkscape:collect="always"
       xlink:href="#linearGradient4063"
       id="linearGradient3090"
       gradientUnits="userSpaceOnUse"
       gradientTransform="translate(-63.999996,0)"
       x1="40.624996"
       y1="20.6875"
       x2="40.8125"
       y2="10.5" />
    <linearGradient
       inkscape:collect="always"
       xlink:href="#linearGradient3990"
       id="linearGradient3839"
       gradientUnits="userSpaceOnUse"
       gradientTransform="translate(-63.999996,0)"
       x1="17.371481"
       y1="1.4948978"
       x2="17.306519"
       y2="4.8073978" />
    <linearGradient
       inkscape:collect="always"
       xlink:href="#linearGradient3984"
       id="linearGradient3846"
       gradientUnits="userSpaceOnUse"
       gradientTransform="matrix(0.9757771,0,0,0.98628529,-0.651405,0.09987579)"
       x1="-47.059258"
       y1="20.14957"
       x2="-46.978706"
       y2="1.0181593" />
    <linearGradient
       inkscape:collect="always"
       xlink:href="#linearGradient4095"
       id="linearGradient3850"
       gradientUnits="userSpaceOnUse"
       gradientTransform="matrix(0.88797735,0,0,0.87902198,-19.10437,2.3346908)"
       x1="-17.784681"
       y1="9.8260183"
       x2="-11.504409"
       y2="9.6024895" />
    <linearGradient
       inkscape:collect="always"
       xlink:href="#linearGradient3849"
       id="linearGradient3853"
       gradientUnits="userSpaceOnUse"
       x1="-22.778793"
       y1="20.150261"
       x2="-22.768219"
       y2="2.0660934" />
    <linearGradient
       inkscape:collect="always"
       xlink:href="#linearGradient4063"
       id="linearGradient3856"
       gradientUnits="userSpaceOnUse"
       gradientTransform="translate(-63.999996,0)"
       x1="40.624996"
       y1="20.6875"
       x2="40.8125"
       y2="10.5" />
    <linearGradient
       inkscape:collect="always"
       xlink:href="#linearGradient3990"
       id="linearGradient3844"
       gradientUnits="userSpaceOnUse"
       gradientTransform="translate(-63.999996,0)"
       x1="17.371481"
       y1="1.4948978"
       x2="17.306519"
       y2="4.8073978" />
    <linearGradient
       inkscape:collect="always"
       xlink:href="#linearGradient3984"
       id="linearGradient3851"
       gradientUnits="userSpaceOnUse"
       gradientTransform="matrix(0.9757771,0,0,0.98628529,-0.651405,0.09987579)"
       x1="-47.059258"
       y1="20.14957"
       x2="-46.978706"
       y2="1.0181593" />
    <linearGradient
       inkscape:collect="always"
       xlink:href="#linearGradient4095"
       id="linearGradient3855"
       gradientUnits="userSpaceOnUse"
       gradientTransform="matrix(0.88797735,0,0,0.87902198,-19.10437,2.3346908)"
       x1="-17.784681"
       y1="9.8260183"
       x2="-11.504409"
       y2="9.6024895" />
    <linearGradient
       inkscape:collect="always"
       xlink:href="#linearGradient3849"
       id="linearGradient3858"
       gradientUnits="userSpaceOnUse"
       x1="-22.778793"
       y1="20.150261"
       x2="-22.768219"
       y2="2.0660934" />
    <linearGradient
       inkscape:collect="always"
       xlink:href="#linearGradient4063"
       id="linearGradient3861"
       gradientUnits="userSpaceOnUse"
       gradientTransform="translate(-63.999996,0)"
       x1="40.624996"
       y1="20.6875"
       x2="40.8125"
       y2="10.5" />
  </defs>
  <metadata
     id="metadata3278">
    <rdf:RDF>
      <cc:Work
         rdf:about="">
        <dc:format>image/svg+xml</dc:format>
        <dc:type
           rdf:resource="http://purl.org/dc/dcmitype/StillImage" />
        <dc:title></dc:title>
      </cc:Work>
    </rdf:RDF>
  </metadata>
  <rect
     style="fill:#232323;fill-opacity:1;stroke:none"
     id="rect3880"
     width="64"
     height="22"
     x="-64"
     y="0"
     rx="0"
     ry="0"
     transform="scale(-1,1)" />
  <rect
     style="fill:#373737;fill-opacity:1;stroke:none"
     id="rect3906"
     width="1"
     height="1"
     x="-1"
     y="21"
     transform="scale(-1,1)" />
  <rect
     style="fill:#414141;fill-opacity:1;stroke:none"
     id="rect3908"
     width="1"
     height="1"
     x="-2"
     y="21"
     transform="scale(-1,1)" />
  <rect
     style="fill:#424242;fill-opacity:1;stroke:none"
     id="rect3910"
     width="60"
     height="1"
     x="-62"
     y="21"
     transform="scale(-1,1)" />
  <rect
     style="fill:#373737;fill-opacity:1;stroke:none"
     id="rect3906-5"
     width="1"
     height="1"
     x="63"
     y="21" />
  <rect
     style="fill:#414141;fill-opacity:1;stroke:none"
     id="rect3908-5"
     width="1"
     height="1"
     x="62"
     y="21" />
  <rect
     style="fill:#404040;fill-opacity:1;stroke:none"
     id="rect3933"
     width="30"
     height="19"
     x="-31"
     y="1"
     transform="scale(-1,1)" />
  <rect
     style="fill:#333333;fill-opacity:1;stroke:none"
     id="rect3939"
     width="28"
     height="17"
     x="-30"
     y="2"
     transform="scale(-1,1)" />
  <rect
     style="fill:#333333;fill-opacity:1;stroke:none"
     id="rect3941"
     width="31"
     height="19"
     x="-63"
     y="1"
     transform="scale(-1,1)" />
  <g
     transform="translate(0.337173,-0.433348)"
     style="font-size:11px;font-style:normal;font-variant:normal;font-weight:bold;font-stretch:normal;line-height:125%;letter-spacing:0px;word-spacing:0px;opacity:0.85087716999999985;fill:#555555;fill-opacity:1;stroke:none;font-family:Aller;-inkscape-font-specification:Aller Bold"
     id="text4331">
    <path
       inkscape:connector-curvature="0"
       style="fill:#555555;fill-opacity:1"
       id="path4496"
       d="m 41.28764,15.436348 c -0.594004,0 -1.107337,-0.102667 -1.54,-0.308 -0.432669,-0.205333 -0.788335,-0.487666 -1.067,-0.847 -0.278668,-0.366665 -0.487668,-0.795665 -0.627,-1.287 -0.132001,-0.498664 -0.198001,-1.04133 -0.198,-1.628 -1e-6,-0.586662 0.066,-1.129328 0.198,-1.628 0.139332,-0.5059939 0.348332,-0.9423268 0.627,-1.309 0.278665,-0.3666594 0.634331,-0.6526591 1.067,-0.858 0.432663,-0.2053254 0.945996,-0.307992 1.54,-0.308 0.593995,8e-6 1.107328,0.1026746 1.54,0.308 0.43266,0.2053409 0.788327,0.4913406 1.067,0.858 0.278659,0.3666732 0.483993,0.8030061 0.616,1.309 0.139326,0.498672 0.208992,1.041338 0.209,1.628 -8e-6,0.58667 -0.06967,1.129336 -0.209,1.628 -0.132007,0.491335 -0.337341,0.920335 -0.616,1.287 -0.278673,0.359334 -0.63434,0.641667 -1.067,0.847 -0.432672,0.205333 -0.946005,0.308 -1.54,0.308 m 0,-1.342 c 1.136661,10e-7 1.704994,-0.909331 1.705,-2.728 -6e-6,-0.909328 -0.139339,-1.5913278 -0.418,-2.046 -0.271339,-0.4546602 -0.696672,-0.6819933 -1.276,-0.682 -1.151337,6.7e-6 -1.727003,0.9093391 -1.727,2.728 -3e-6,1.818669 0.571997,2.728001 1.716,2.728" />
    <path
       inkscape:connector-curvature="0"
       style="fill:#555555;fill-opacity:1"
       id="path4498"
       d="m 46.056827,7.395348 4.488,0 c 0.044,0.2200077 0.066,0.4436741 0.066,0.671 -5e-6,0.242007 -0.02201,0.4730068 -0.066,0.693 l -2.882,0 0,1.859 2.288,0 c 0.044,0.234671 0.066,0.462004 0.066,0.682 -5e-6,0.23467 -0.02201,0.46567 -0.066,0.693 l -2.288,0 0,3.311 c -0.278669,0.044 -0.542668,0.066 -0.792,0.066 -0.271335,0 -0.542668,-0.022 -0.814,-0.066 l 0,-7.909" />
    <path
       inkscape:connector-curvature="0"
       style="fill:#555555;fill-opacity:1"
       id="path4500"
       d="m 51.642765,7.395348 4.488,0 c 0.04399,0.2200077 0.06599,0.4436741 0.066,0.671 -6e-6,0.242007 -0.02201,0.4730068 -0.066,0.693 l -2.882,0 0,1.859 2.288,0 c 0.04399,0.234671 0.066,0.462004 0.066,0.682 -5e-6,0.23467 -0.02201,0.46567 -0.066,0.693 l -2.288,0 0,3.311 c -0.278669,0.044 -0.542669,0.066 -0.792,0.066 -0.271335,0 -0.542668,-0.022 -0.814,-0.066 l 0,-7.909" />
  </g>
</svg>
